<mxfile host="app.diagrams.net" agent="Mozilla/5.0 (Windows NT 10.0; Win64; x64) AppleWebKit/537.36 (KHTML, like Gecko) Chrome/129.0.0.0 Safari/537.36" version="24.7.16">
  <diagram name="PÃ¡gina-1" id="RGqowtpjtlv5ixk42vXm">
    <mxGraphModel dx="1257" dy="1789" grid="1" gridSize="10" guides="1" tooltips="1" connect="1" arrows="1" fold="1" page="1" pageScale="1" pageWidth="827" pageHeight="1169" math="0" shadow="0">
      <root>
        <mxCell id="0" />
        <mxCell id="1" parent="0" />
        <mxCell id="b5H7RUj6t-GKX7VVi5xL-20" value="VPC" style="sketch=0;outlineConnect=0;gradientColor=none;html=1;whiteSpace=wrap;fontSize=12;fontStyle=0;shape=mxgraph.aws4.group;grIcon=mxgraph.aws4.group_vpc;strokeColor=#879196;fillColor=none;verticalAlign=top;align=left;spacingLeft=30;fontColor=#879196;dashed=0;" vertex="1" parent="1">
          <mxGeometry x="430" y="-40" width="540" height="390" as="geometry" />
        </mxCell>
        <mxCell id="b5H7RUj6t-GKX7VVi5xL-17" style="edgeStyle=orthogonalEdgeStyle;rounded=0;orthogonalLoop=1;jettySize=auto;html=1;" edge="1" parent="1" source="nhMDvSta5a710F3bMiWs-1" target="b5H7RUj6t-GKX7VVi5xL-6">
          <mxGeometry relative="1" as="geometry">
            <mxPoint x="310" y="200" as="targetPoint" />
          </mxGeometry>
        </mxCell>
        <mxCell id="nhMDvSta5a710F3bMiWs-1" value="Amazon API Gateway" style="sketch=0;outlineConnect=0;fontColor=#232F3E;gradientColor=none;strokeColor=#ffffff;fillColor=#232F3E;dashed=0;verticalLabelPosition=middle;verticalAlign=bottom;align=center;html=1;whiteSpace=wrap;fontSize=10;fontStyle=1;spacing=3;shape=mxgraph.aws4.productIcon;prIcon=mxgraph.aws4.api_gateway;" parent="1" vertex="1">
          <mxGeometry x="250" y="145" width="80" height="110" as="geometry" />
        </mxCell>
        <mxCell id="b5H7RUj6t-GKX7VVi5xL-4" style="edgeStyle=orthogonalEdgeStyle;rounded=0;orthogonalLoop=1;jettySize=auto;html=1;" edge="1" parent="1" source="b5H7RUj6t-GKX7VVi5xL-1" target="nhMDvSta5a710F3bMiWs-1">
          <mxGeometry relative="1" as="geometry" />
        </mxCell>
        <mxCell id="b5H7RUj6t-GKX7VVi5xL-1" value="" style="shape=actor;whiteSpace=wrap;html=1;" vertex="1" parent="1">
          <mxGeometry x="60" y="155" width="80" height="90" as="geometry" />
        </mxCell>
        <mxCell id="b5H7RUj6t-GKX7VVi5xL-21" style="edgeStyle=orthogonalEdgeStyle;rounded=0;orthogonalLoop=1;jettySize=auto;html=1;" edge="1" parent="1" source="b5H7RUj6t-GKX7VVi5xL-6" target="b5H7RUj6t-GKX7VVi5xL-16">
          <mxGeometry relative="1" as="geometry" />
        </mxCell>
        <mxCell id="b5H7RUj6t-GKX7VVi5xL-6" value="Load Balancer" style="sketch=0;outlineConnect=0;fontColor=#232F3E;gradientColor=none;fillColor=#8C4FFF;strokeColor=none;dashed=0;verticalLabelPosition=bottom;verticalAlign=top;align=center;html=1;fontSize=12;fontStyle=0;aspect=fixed;pointerEvents=1;shape=mxgraph.aws4.application_load_balancer;" vertex="1" parent="1">
          <mxGeometry x="470" y="161" width="78" height="78" as="geometry" />
        </mxCell>
        <mxCell id="b5H7RUj6t-GKX7VVi5xL-13" value="Amazon EKS" style="points=[[0,0],[0.25,0],[0.5,0],[0.75,0],[1,0],[1,0.25],[1,0.5],[1,0.75],[1,1],[0.75,1],[0.5,1],[0.25,1],[0,1],[0,0.75],[0,0.5],[0,0.25]];outlineConnect=0;gradientColor=none;html=1;whiteSpace=wrap;fontSize=12;fontStyle=0;container=1;pointerEvents=0;collapsible=0;recursiveResize=0;shape=mxgraph.aws4.group;grIcon=mxgraph.aws4.group_ec2_instance_contents;strokeColor=#D86613;fillColor=none;verticalAlign=top;align=center;spacingLeft=30;fontColor=#D86613;dashed=0;" vertex="1" parent="1">
          <mxGeometry x="610" y="30" width="336" height="275" as="geometry" />
        </mxCell>
        <mxCell id="b5H7RUj6t-GKX7VVi5xL-12" value="" style="sketch=0;points=[[0,0,0],[0.25,0,0],[0.5,0,0],[0.75,0,0],[1,0,0],[0,1,0],[0.25,1,0],[0.5,1,0],[0.75,1,0],[1,1,0],[0,0.25,0],[0,0.5,0],[0,0.75,0],[1,0.25,0],[1,0.5,0],[1,0.75,0]];outlineConnect=0;fontColor=#232F3E;fillColor=#ED7100;strokeColor=#ffffff;dashed=0;verticalLabelPosition=bottom;verticalAlign=top;align=center;html=1;fontSize=12;fontStyle=0;aspect=fixed;shape=mxgraph.aws4.resourceIcon;resIcon=mxgraph.aws4.eks;" vertex="1" parent="b5H7RUj6t-GKX7VVi5xL-13">
          <mxGeometry width="60" height="60" as="geometry" />
        </mxCell>
        <mxCell id="b5H7RUj6t-GKX7VVi5xL-14" value="Fargate" style="points=[[0,0],[0.25,0],[0.5,0],[0.75,0],[1,0],[1,0.25],[1,0.5],[1,0.75],[1,1],[0.75,1],[0.5,1],[0.25,1],[0,1],[0,0.75],[0,0.5],[0,0.25]];outlineConnect=0;gradientColor=none;html=1;whiteSpace=wrap;fontSize=12;fontStyle=0;container=1;pointerEvents=0;collapsible=0;recursiveResize=0;shape=mxgraph.aws4.group;grIcon=mxgraph.aws4.group_ec2_instance_contents;strokeColor=#D86613;fillColor=none;verticalAlign=top;align=center;spacingLeft=30;fontColor=#D86613;dashed=0;" vertex="1" parent="b5H7RUj6t-GKX7VVi5xL-13">
          <mxGeometry x="48" y="80" width="240" height="150" as="geometry" />
        </mxCell>
        <mxCell id="b5H7RUj6t-GKX7VVi5xL-10" value="" style="sketch=0;points=[[0,0,0],[0.25,0,0],[0.5,0,0],[0.75,0,0],[1,0,0],[0,1,0],[0.25,1,0],[0.5,1,0],[0.75,1,0],[1,1,0],[0,0.25,0],[0,0.5,0],[0,0.75,0],[1,0.25,0],[1,0.5,0],[1,0.75,0]];outlineConnect=0;fontColor=#232F3E;fillColor=#ED7100;strokeColor=#ffffff;dashed=0;verticalLabelPosition=bottom;verticalAlign=top;align=center;html=1;fontSize=12;fontStyle=0;aspect=fixed;shape=mxgraph.aws4.resourceIcon;resIcon=mxgraph.aws4.fargate;" vertex="1" parent="b5H7RUj6t-GKX7VVi5xL-14">
          <mxGeometry width="60" height="60" as="geometry" />
        </mxCell>
        <mxCell id="b5H7RUj6t-GKX7VVi5xL-16" value="Valida Jwt" style="aspect=fixed;sketch=0;html=1;dashed=0;whitespace=wrap;verticalLabelPosition=bottom;verticalAlign=top;fillColor=#2875E2;strokeColor=#ffffff;points=[[0.005,0.63,0],[0.1,0.2,0],[0.9,0.2,0],[0.5,0,0],[0.995,0.63,0],[0.72,0.99,0],[0.5,1,0],[0.28,0.99,0]];shape=mxgraph.kubernetes.icon2;kubernetesLabel=1;prIcon=pod" vertex="1" parent="b5H7RUj6t-GKX7VVi5xL-14">
          <mxGeometry x="102" y="66" width="50" height="48" as="geometry" />
        </mxCell>
        <mxCell id="b5H7RUj6t-GKX7VVi5xL-23" value="AWS Cloud" style="sketch=0;outlineConnect=0;gradientColor=none;html=1;whiteSpace=wrap;fontSize=12;fontStyle=0;shape=mxgraph.aws4.group;grIcon=mxgraph.aws4.group_aws_cloud;strokeColor=#858B94;fillColor=none;verticalAlign=top;align=left;spacingLeft=30;fontColor=#858B94;dashed=0;" vertex="1" parent="1">
          <mxGeometry x="230" y="-100" width="820" height="520" as="geometry" />
        </mxCell>
      </root>
    </mxGraphModel>
  </diagram>
</mxfile>
